<svg width="25" height="24" viewBox="0 0 25 24" fill="none" xmlns="http://www.w3.org/2000/svg">
<path d="M18.4995 13L11.4995 6.00004M21.4995 21H8.49955M11.4368 20.0628L20.1054 11.3941C21.2935 10.2061 21.8875 9.61207 22.1101 8.92709C22.3058 8.32456 22.3058 7.67551 22.1101 7.07298C21.8875 6.388 21.2935 5.79397 20.1054 4.60592L19.8937 4.39415C18.7056 3.2061 18.1116 2.61207 17.4266 2.38951C16.8241 2.19373 16.175 2.19373 15.5725 2.38951C14.8875 2.61207 14.2935 3.2061 13.1054 4.39415L4.89366 12.6059C3.70561 13.794 3.11158 14.388 2.88902 15.073C2.69324 15.6755 2.69324 16.3246 2.88902 16.9271C3.11158 17.6121 3.70561 18.2061 4.89366 19.3941L5.56229 20.0628C5.90819 20.4087 6.08114 20.5816 6.28298 20.7053C6.46192 20.815 6.65701 20.8958 6.86108 20.9448C7.09126 21 7.33585 21 7.82503 21H9.17406C9.66324 21 9.90784 21 10.138 20.9448C10.3421 20.8958 10.5372 20.815 10.7161 20.7053C10.918 20.5816 11.0909 20.4087 11.4368 20.0628Z" stroke="black" stroke-width="2" stroke-linecap="round" stroke-linejoin="round"/>
</svg>
