<svg width="25" height="24" viewBox="0 0 25 24" fill="none" xmlns="http://www.w3.org/2000/svg">
<path d="M16.4997 11L2.4997 11M10.4997 4L8.4997 2M14.4997 22L2.4997 22M22.4997 16C22.4997 17.1046 21.6043 18 20.4997 18C19.3951 18 18.4997 17.1046 18.4997 16C18.4997 14.8954 20.4997 13 20.4997 13C20.4997 13 22.4997 14.8954 22.4997 16ZM9.4997 3L16.3683 9.86863C16.7643 10.2646 16.9624 10.4627 17.0365 10.691C17.1018 10.8918 17.1018 11.1082 17.0365 11.309C16.9624 11.5373 16.7643 11.7354 16.3683 12.1314L11.7624 16.7373C10.9704 17.5293 10.5744 17.9253 10.1177 18.0737C9.71605 18.2042 9.28335 18.2042 8.88166 18.0737C8.42501 17.9253 8.02899 17.5293 7.23696 16.7373L3.76244 13.2627C2.9704 12.4707 2.57439 12.0747 2.42601 11.618C2.2955 11.2163 2.2955 10.7837 2.42601 10.382C2.57439 9.92531 2.97041 9.52929 3.76244 8.73726L9.4997 3Z" stroke="black" stroke-width="2" stroke-linecap="round" stroke-linejoin="round"/>
</svg>
